<svg xmlns="http://www.w3.org/2000/svg" xmlns:xlink="http://www.w3.org/1999/xlink" width="500" height="337.79" viewBox="0 0 500 337.79">
  <defs>
    <radialGradient id="radial-gradient" cx="0.5" cy="0.858" r="0.466" gradientTransform="translate(0 -0.647) scale(1 1.754)" gradientUnits="objectBoundingBox">
      <stop offset="0" stop-color="#fff"/>
      <stop offset="0.536" stop-color="#fff"/>
      <stop offset="1" stop-color="#fff0a2"/>
    </radialGradient>
    <linearGradient id="linear-gradient" x1="0.5" x2="0.5" y2="1" gradientUnits="objectBoundingBox">
      <stop offset="0" stop-color="#5e636f"/>
      <stop offset="1" stop-color="#0c0b37"/>
    </linearGradient>
    <clipPath id="clip-logoPNG">
      <rect width="500" height="337.79"/>
    </clipPath>
  </defs>
  <g id="logoPNG" clip-path="url(#clip-logoPNG)">
    <g id="Logo" transform="translate(0 5.005)">
      <g id="Sun" transform="translate(0 53.016)" fill="url(#radial-gradient)">
        <path d="M 496.0125427246094 277.2687072753906 L 3.967933893203735 277.1241455078125 C 2.993463039398193 268.2132263183594 2.499984741210938 259.1003723144531 2.499984741210938 249.9999542236328 C 2.499984741210938 233.2057495117188 4.191784858703613 216.4228820800781 7.528317928314209 200.1174163818359 C 10.77985095977783 184.2276916503906 15.63158512115479 168.5980224609375 21.9487190246582 153.6625518798828 C 28.15145111083984 138.9977569580078 35.82884979248047 124.8532867431641 44.76765060424805 111.6221542358398 C 53.62191772460938 98.51602172851562 63.79058456420898 86.19155883789062 74.99105072021484 74.9910888671875 C 86.19158172607422 63.79055786132812 98.51605224609375 53.62195587158203 111.6221160888672 44.76762390136719 C 124.8533172607422 35.82888793945312 138.9977874755859 28.1514892578125 153.6625823974609 21.94875526428223 C 168.5980529785156 15.63162231445312 184.2277221679688 10.77988910675049 200.1174468994141 7.528356075286865 C 216.4229125976562 4.191822528839111 233.2057800292969 2.500022649765015 249.9999847412109 2.500022649765015 C 266.794189453125 2.500022649765015 283.5770568847656 4.191822528839111 299.8825073242188 7.528356075286865 C 315.7722473144531 10.77988910675049 331.4019165039062 15.63162231445312 346.3373718261719 21.94875526428223 C 361.002197265625 28.1514892578125 375.1466369628906 35.82888793945312 388.3778381347656 44.76762390136719 C 401.4839172363281 53.62195587158203 413.8083801269531 63.79055786132812 425.0089111328125 74.9910888671875 C 436.2093811035156 86.19155883789062 446.3780517578125 98.51602172851562 455.2323303222656 111.6221542358398 C 464.1711120605469 124.8532867431641 471.8485107421875 138.9977569580078 478.0512390136719 153.6625518798828 C 484.3683776855469 168.5980224609375 489.2201232910156 184.2276916503906 492.4716491699219 200.1174163818359 C 495.8081970214844 216.4228820800781 497.5 233.2057495117188 497.5 249.9999542236328 C 497.5 259.1260681152344 497.0127563476562 268.0697021484375 496.0125427246094 277.2687072753906 Z" stroke="none"/>
        <path d="M 249.9999847412109 5.000030517578125 C 233.373779296875 5.000030517578125 216.759521484375 6.67474365234375 200.61865234375 9.977630615234375 C 184.8905029296875 13.19607543945312 169.419921875 17.9984130859375 154.6364440917969 24.25128173828125 C 140.1202392578125 30.39108276367188 126.1190490722656 37.99075317382812 113.0216369628906 46.83921813964844 C 100.0473937988281 55.60441589355469 87.84677124023438 65.67082214355469 76.75885009765625 76.75881958007812 C 65.67083740234375 87.84681701660156 55.6043701171875 100.0474243164062 46.83917236328125 113.0216827392578 C 37.99072265625 126.1190185546875 30.39105224609375 140.1202850341797 24.25125122070312 154.6364898681641 C 17.99838256835938 169.4198913574219 13.196044921875 184.8905639648438 9.977569580078125 200.6186218261719 C 6.674713134765625 216.7594909667969 4.999969482421875 233.3737487792969 4.999969482421875 249.9999542236328 C 4.999969482421875 258.2523498535156 5.409942626953125 266.5157470703125 6.220062255859375 274.6248168945312 L 493.760009765625 274.7680358886719 C 494.5932006835938 266.4400939941406 495 258.2955627441406 495 249.9999542236328 C 495 233.3737487792969 493.3252563476562 216.7594909667969 490.0223999023438 200.6186218261719 C 486.8039245605469 184.8905639648438 482.0015869140625 169.4198913574219 475.7487182617188 154.6364898681641 C 469.6089172363281 140.1202850341797 462.0091857910156 126.1190185546875 453.1607971191406 113.0216827392578 C 444.3955078125 100.0474243164062 434.3291015625 87.84681701660156 423.2411193847656 76.75881958007812 C 412.1531066894531 65.67088317871094 399.9525756835938 55.60441589355469 386.9783325195312 46.83921813964844 C 373.8809204101562 37.99075317382812 359.879638671875 30.39108276367188 345.3634643554688 24.25128173828125 C 330.5800476074219 17.9984130859375 315.109375 13.19607543945312 299.3813171386719 9.977630615234375 C 283.2404479980469 6.67474365234375 266.6261901855469 5.000030517578125 249.9999847412109 5.000030517578125 M 249.9999847412109 3.0517578125e-05 C 388.0711059570312 3.0517578125e-05 500 111.9288177490234 500 249.9999542236328 C 500 259.9411010742188 499.4197082519531 269.7467041015625 498.2459716796875 279.7693481445312 L 1.736724853515625 279.6234741210938 C 0.596466064453125 270.0191040039062 -3.0517578125e-05 260.0791625976562 -3.0517578125e-05 249.9999542236328 C -3.0517578125e-05 111.9288177490234 111.9287719726562 3.0517578125e-05 249.9999847412109 3.0517578125e-05 Z" stroke="none" fill="#0c0b37"/>
      </g>
      <g id="body" transform="translate(14.835)">
        <g id="Body-2" data-name="Body" transform="translate(-1431.358 -299.278)" fill="url(#linear-gradient)">
          <path d="M 1907.458740234375 629.486083984375 L 1903.160278320312 629.4842529296875 L 1431.357299804688 629.2783203125 L 1426.229736328125 629.2760620117188 L 1429.389404296875 625.2377319335938 C 1445.882446289062 604.158447265625 1452.62939453125 588.3944702148438 1458.582153320312 574.486328125 C 1466.60595703125 555.739501953125 1473.535400390625 539.5491333007812 1500.544189453125 517.5572509765625 C 1509.39306640625 510.35205078125 1517.307373046875 505.1863098144531 1524.739379882812 501.7647399902344 C 1531.9853515625 498.4288635253906 1538.654907226562 496.8072204589844 1545.129150390625 496.8072204589844 C 1549.286254882812 496.8072204589844 1553.269409179688 497.4685363769531 1557.306640625 498.8290405273438 C 1560.249267578125 499.8206481933594 1563.161499023438 501.1661071777344 1566.147216796875 502.9169006347656 C 1562.045288085938 496.8969421386719 1558.95849609375 490.9348754882812 1556.766235351562 484.8151245117188 C 1551.8056640625 470.9683532714844 1550.562377929688 455.2155456542969 1553.070678710938 437.9942932128906 C 1555.71923828125 419.8108520507812 1562.5419921875 400.2048645019531 1573.349487304688 379.7207336425781 C 1581.5537109375 364.1706848144531 1589.987670898438 350.58642578125 1598.4169921875 339.3453063964844 C 1606.133178710938 329.0550537109375 1614.017700195312 320.4976806640625 1621.851684570312 313.9108581542969 C 1628.955810546875 307.9376220703125 1636.160278320312 303.4634094238281 1643.264770507812 300.6126098632812 C 1649.605346679688 298.068359375 1655.951782226562 296.7783508300781 1662.127685546875 296.7783508300781 C 1668.987915039062 296.7783508300781 1675.572143554688 298.3383483886719 1681.69775390625 301.4149780273438 C 1686.41552734375 303.7845458984375 1690.815795898438 307.0940551757812 1694.088134765625 310.7338562011719 C 1699.675415039062 316.9490356445312 1704.950805664062 321.1941833496094 1710.536010742188 325.6885375976562 C 1718.04638671875 331.732177734375 1726.558837890625 338.5821838378906 1737.712646484375 351.6514892578125 C 1744.494750976562 359.5984191894531 1749.204711914062 366.5521240234375 1752.111572265625 372.9098510742188 C 1754.720581054688 378.6163024902344 1755.586791992188 383.0824279785156 1756.424438476562 387.4014892578125 C 1756.91552734375 389.9341735839844 1757.37939453125 392.3263549804688 1758.184692382812 394.877685546875 C 1759.707397460938 399.7018127441406 1761.515014648438 402.4420471191406 1763.10986328125 404.8596801757812 C 1765.208129882812 408.0405578613281 1767.190063476562 411.0450439453125 1767.460083007812 417.0517883300781 C 1767.712036132812 422.6564331054688 1768.371704101562 426.2902221679688 1769.135375976562 430.497802734375 C 1769.654907226562 433.360107421875 1770.243774414062 436.604248046875 1770.777709960938 440.888916015625 C 1770.861328125 441.5598449707031 1770.970458984375 442.3260498046875 1771.086059570312 443.1372375488281 C 1771.924682617188 449.0238647460938 1773.328369140625 458.8763732910156 1770.639282226562 471.7077941894531 C 1769.161743164062 478.75830078125 1766.598266601562 485.9553527832031 1763.020263671875 493.0991821289062 C 1761.598388671875 495.9381103515625 1760.00244140625 498.7962036132812 1758.239624023438 501.6629943847656 C 1761.513793945312 500.2582702636719 1765.482543945312 499.3327941894531 1770.34716796875 499.3327941894531 C 1774.869873046875 499.3327941894531 1779.908935546875 500.152099609375 1785.324462890625 501.7680358886719 C 1791.28662109375 503.5470581054688 1797.901733398438 506.3494873046875 1804.986328125 510.0975341796875 C 1836.39111328125 526.712158203125 1847.228149414062 547.6480712890625 1856.789672851562 566.1194458007812 C 1861.598754882812 575.4100952148438 1866.14111328125 584.1857299804688 1872.861938476562 591.3839721679688 C 1875.371337890625 593.9044799804688 1878.1826171875 596.1654663085938 1881.158203125 598.5587158203125 C 1884.960327148438 601.61669921875 1888.891967773438 604.7787475585938 1892.989990234375 609.040771484375 C 1897.678833007812 613.91748046875 1901.716918945312 619.3827514648438 1905.334838867188 625.7489624023438 L 1907.458740234375 629.486083984375 Z" stroke="none"/>
          <path d="M 1903.161376953125 626.9842529296875 C 1892.042358398438 607.4193115234375 1880.015380859375 602.126708984375 1871.062133789062 593.1195678710938 C 1850.651611328125 571.2896728515625 1850.459838867188 536.9834594726562 1803.817260742188 512.307373046875 C 1789.16748046875 504.5569152832031 1778.403442382812 501.8327941894531 1770.34716796875 501.8327941894531 C 1752.753662109375 501.8327941894531 1748.0849609375 514.8336181640625 1744.140014648438 516.8738403320312 C 1776.081787109375 478.5820617675781 1769.603271484375 451.6816101074219 1768.296875 441.1980590820312 C 1766.990478515625 430.714599609375 1765.396728515625 426.8199768066406 1764.962646484375 417.1641235351562 C 1764.528442382812 407.50830078125 1759.423950195312 407.109375 1755.800659179688 395.6301574707031 C 1752.177490234375 384.1510620117188 1755.155029296875 375.9406127929688 1735.81103515625 353.2744140625 C 1716.466918945312 330.6082458496094 1705.49755859375 327.1647338867188 1692.228881835938 312.4052429199219 C 1686.972045898438 306.5578308105469 1676.4443359375 299.2783508300781 1662.127685546875 299.2783508300781 C 1640.307495117188 299.2783508300781 1609.691162109375 316.197998046875 1575.560546875 380.8873596191406 C 1553.455078125 422.7850952148438 1549.770385742188 457.8741149902344 1559.119750976562 483.9719848632812 C 1564.997192382812 500.3788757324219 1576.386962890625 512.6117553710938 1588.278930664062 524.9180297851562 C 1589.159057617188 525.8200073242188 1590.042236328125 526.7337646484375 1590.938110351562 527.666259765625 C 1593.601318359375 530.419189453125 1596.271606445312 533.1920166015625 1598.89208984375 536.0307006835938 C 1596.154174804688 533.1443481445312 1593.510375976562 530.3440551757812 1590.938110351562 527.666259765625 C 1590.05029296875 526.7486572265625 1589.163208007812 525.8330688476562 1588.278930664062 524.9180297851562 C 1573.632934570312 509.9077758789062 1561.00244140625 499.3072509765625 1545.129272460938 499.3072509765625 C 1533.312866210938 499.3072509765625 1519.695922851562 505.1867980957031 1502.122680664062 519.495849609375 C 1455.450561523438 557.4987182617188 1470.043090820312 577.336181640625 1431.3583984375 626.7783203125 L 1903.161376953125 626.9842529296875 M 1911.756103515625 631.9879760742188 L 1421.101196289062 631.7738037109375 L 1427.420532226562 623.697265625 C 1443.71240234375 602.8748168945312 1450.391235351562 587.270263671875 1456.283935546875 573.5026245117188 C 1460.3203125 564.0717163085938 1464.132934570312 555.1638793945312 1470.38818359375 545.814453125 C 1477.333618164062 535.4335327148438 1486.414306640625 525.838623046875 1498.965698242188 515.6185913085938 C 1507.979614257812 508.2789306640625 1516.068359375 503.0044860839844 1523.69384765625 499.4938659667969 C 1527.462768554688 497.7587280273438 1531.173706054688 496.4448547363281 1534.723510742188 495.5888671875 C 1538.249877929688 494.7384338378906 1541.750854492188 494.3072204589844 1545.129150390625 494.3072204589844 C 1549.50048828125 494.3072204589844 1553.866088867188 495.031494140625 1558.10498046875 496.4599304199219 C 1558.586669921875 496.6222839355469 1559.067626953125 496.7935180664062 1559.5478515625 496.9737854003906 C 1557.483276367188 493.2326049804688 1555.780883789062 489.4774169921875 1554.412719726562 485.6581726074219 C 1549.312744140625 471.422119140625 1548.02880859375 455.2644348144531 1550.596801757812 437.6339721679688 C 1553.286499023438 419.1680603027344 1560.197631835938 399.2907409667969 1571.138305664062 378.5541687011719 C 1579.403930664062 362.8879699707031 1587.908813476562 349.1916198730469 1596.416748046875 337.8454895019531 C 1604.2470703125 327.4031066894531 1612.263305664062 318.70654296875 1620.242797851562 311.9973449707031 C 1627.55029296875 305.8531799316406 1634.982788085938 301.2421875 1642.333740234375 298.29248046875 C 1648.9716796875 295.6289367675781 1655.63134765625 294.2783508300781 1662.127685546875 294.2783508300781 C 1665.927978515625 294.2783508300781 1669.703369140625 294.742431640625 1673.348999023438 295.6576232910156 C 1676.607177734375 296.4755554199219 1679.793579101562 297.6609802246094 1682.819946289062 299.180908203125 C 1687.8095703125 301.6870422363281 1692.4716796875 305.1964111328125 1695.947143554688 309.0625 C 1701.399780273438 315.1277465820312 1706.359985351562 319.1191711425781 1712.103271484375 323.7408752441406 C 1719.69921875 329.8533020019531 1728.308471679688 336.78125 1739.6142578125 350.0285949707031 C 1743.29736328125 354.3441772460938 1746.311889648438 358.2779235839844 1748.830322265625 362.0545349121094 C 1751.1142578125 365.4796142578125 1752.931274414062 368.6903686523438 1754.38525390625 371.870361328125 C 1757.1181640625 377.8478088378906 1758.053466796875 382.6705627441406 1758.878662109375 386.925537109375 C 1759.355834960938 389.3860473632812 1759.806518554688 391.7101135253906 1760.568725585938 394.125244140625 C 1761.986328125 398.6165466308594 1763.618408203125 401.0904846191406 1765.196655273438 403.4830627441406 C 1767.389282226562 406.8069152832031 1769.656494140625 410.2439270019531 1769.95751953125 416.9394836425781 C 1770.202026367188 422.3757934570312 1770.816772460938 425.7629699707031 1771.59521484375 430.0513000488281 C 1772.12060546875 432.9456787109375 1772.716064453125 436.2261657714844 1773.258544921875 440.5797424316406 C 1773.33935546875 441.2289733886719 1773.447021484375 441.984619140625 1773.56103515625 442.7846069335938 C 1774.4228515625 448.8340454101562 1775.865356445312 458.9589233398438 1773.086181640625 472.2206115722656 C 1771.564453125 479.4814758300781 1768.929809570312 486.8827209472656 1765.255493164062 494.21875 C 1764.716918945312 495.2940368652344 1764.15380859375 496.3722534179688 1763.567138671875 497.4518737792969 C 1765.726684570312 497.0404052734375 1767.995727539062 496.8327941894531 1770.34716796875 496.8327941894531 C 1775.112060546875 496.8327941894531 1780.3916015625 497.6872253417969 1786.039306640625 499.3724365234375 C 1792.158203125 501.1981811523438 1798.92626953125 504.0631713867188 1806.155395507812 507.8877258300781 C 1813.705322265625 511.8819885253906 1820.566162109375 516.399658203125 1826.547729492188 521.3153076171875 C 1831.934448242188 525.7421264648438 1836.674682617188 530.5023193359375 1841.03955078125 535.8679809570312 C 1844.628784179688 540.2801513671875 1847.974853515625 545.1337890625 1851.268920898438 550.7062377929688 C 1854.142822265625 555.5677490234375 1856.617065429688 560.3475952148438 1859.009765625 564.9701538085938 C 1863.73095703125 574.0907592773438 1868.191162109375 582.7072143554688 1874.662353515625 589.6490478515625 C 1877.067749023438 592.0606079101562 1879.816284179688 594.271240234375 1882.72509765625 596.610595703125 C 1886.408447265625 599.5730590820312 1890.583374023438 602.9307861328125 1894.792114257812 607.30810546875 C 1899.626831054688 612.3364868164062 1903.786376953125 617.9644775390625 1907.508422851562 624.5137329101562 L 1911.756103515625 631.9879760742188 Z" stroke="none" fill="#0c0b37"/>
        </g>
        <path id="Dark_Face" data-name="Dark Face" d="M1614.092,553.241c-9.995-5.614-25.895-22.7-38.2-44.5-23.648-41.922-37.331-101.443,6.013-127.005A175.865,175.865,0,0,0,1567.2,402.6c2.785-3.77,24.642-27.772,37.387-33.3,13.869-10.24,36.367-14.183,36.367-14.183s-11.336,5.594-14.218,8.947a82.4,82.4,0,0,1,37.765,5.719c27.387,5.565,46.115,24.934,46.115,24.934s-12.494-7.565-18.83-9c11.353,9.017,19.231,19.011,21.689,24.774,7.565,17.742,12.641,72.965-22.991,115S1643.663,569.849,1614.092,553.241Z" transform="translate(-1404.345 -286.774)" fill="#0c0b37"/>
        <g id="Eyes" transform="translate(178.03 143.504)">
          <path id="Left_Eye" data-name="Left Eye" d="M1584.686,416.725l30.889,11.732s-19.37,8.233-31.933.606S1579.9,416.434,1584.686,416.725Z" transform="translate(-1577.189 -416.713)" fill="#91ffff"/>
          <path id="Right_Eye" data-name="Right Eye" d="M1608.078,416.725l-30.889,11.732s16.108,7.044,31.932.606S1612.868,416.433,1608.078,416.725Z" transform="translate(-1503.941 -416.713)" fill="#91ffff"/>
        </g>
        <g id="Hand" transform="translate(213.143 177.054)">
          <path id="Hand-2" data-name="Hand" d="M1732.095,593.843s-15.623-9.948-16.436-14.556,0-3.967-4.263-11.187-15.943-15.771-27.279-46.82c-4.24-11.614-6.234-12.641-14.613-16.091s-15.574-15.943-19.369-25.628c-8.23-8.206-15.8-15.451-17.274-21.685-7.393-3.622-9.684-14.292-11.656-13.8s-15.451,11.828,1.306,29.078c2.957,10.842,7.393,15.6,9.044,17.077s2.464,6.9,2.464,6.9-8.379-3.085-12.814.706-15.911,22.834-15.225,32.268c.33,4.538,5.74,8.009,8.264,12.284,2.334,3.959,2.464,6.053,4,6.769a20.22,20.22,0,0,1,2.893,1.86c.85,2.28,2.773,6.382,15.009,12.7,1.243,3.108,5.775,6.451,7.758,6.883,5.2,4.908,4.771,4.618,7.954,9.066a89.98,89.98,0,0,1,7.887,14.176Z" transform="translate(-1605.951 -444.06)" fill="#313350" stroke="#0c0b37" stroke-width="2"/>
          <path id="Path_10" data-name="Path 10" d="M308.565,262.068s-32-6.7-43.064-11.77" transform="translate(-237.972 -197.513)" fill="none" stroke="#0c0b37" stroke-width="2"/>
          <path id="Path_11" data-name="Path 11" d="M256.719,302.673a22.542,22.542,0,0,1,.262-8c.435-2.378,3.852-16.012,6.576-18.921s27.567-3.378,27.567-3.378-23.644-1.057-27.97,1.634-6.912,19.258-6.973,18.338c-.525-7.851-1.2-18.713.539-20.877,2.956-3.675,41.33-6.224,41.33-6.224l-33.586,1.041a31.453,31.453,0,0,1-3.124-4.632,19.865,19.865,0,0,1,.563,4.632s-7.014,1.269-8.295,5.183a26.449,26.449,0,0,0-.332,5.582c-.472.57-.543.623-1.183.56.981.177.787.3,1.216,1,.216,8.385,1.736,23.109,1.736,23.109" transform="translate(-240.933 -195.006)" fill="#0c0b37"/>
          <path id="Path_12" data-name="Path 12" d="M268.137,307.117c8.024-.567,7.606-5.482,7.7-10.482" transform="translate(-237.39 -187.282)" fill="none" stroke="#0c0b37" stroke-width="2"/>
          <path id="Path_13" data-name="Path 13" d="M275.658,316.793c10.581.475,8.924-9.915,5.949-13.315s-5.567-3.067-5.567-3.067-1.374-8.024-12.04-6.041c7.692-1.657,9.533-5.765,4.009-13.974,5.949,7.975,6.8,6.983,9.349,7.125s6.332-3.407,6.99-5.574c-.474,2.266-3.3,6.842-4.908,7.366,3.3,2.174,4.859,3.541,5.992,3.4-.326.992,2.876,5.057,11.9,4.157-4.816,1.792-5.85,1.792-5.85,1.792s6.6,13.315,4.575,21.106c-.545,2.1.524,5.956-1.176,5.907s1.126-15.546-9.448-27.012c2.125,8.973,2.79,15.673-4.2,23.372Z" transform="translate(-238.303 -190.867)" fill="#0c0b37"/>
        </g>
      </g>
    </g>
  </g>
</svg>
